# xmcd
#
# Track frame offsets:
#   150
#   18655
#   35937
#   54258
#   70602
#   91186
#   106872
#   126923
#   153764
#   174191
#   195503
#   217419
#
# Disc length: 3129 seconds
#
# Revision: 0
# Processed by: cddbd v1.5PL3 Copyright (c) Steve Scherf et al.
# Submitted via: uFREEDB 1.6.0
#
DISCID=9d0c370c
DTITLE=Ilse Delange - Livin' on Love
DYEAR=2001
DGENRE=Country
TTITLE0=Good Thing
TTITLE1=Naked Heart
TTITLE2=Naked Heart
TTITLE3=Breathin'
TTITLE4=I Still Cry
TTITLE5=Beyond Gravity
TTITLE6=Livin' on Love
TTITLE7=Peaceful in Mine
TTITLE8=When You Put It Like That
TTITLE9=Always Overcome
TTITLE10=Breathe in, Breathe Out
TTITLE11=Everywhere I Go
EXTD=
EXTT0=
EXTT1=
EXTT2=
EXTT3=
EXTT4=
EXTT5=
EXTT6=
EXTT7=
EXTT8=
EXTT9=
EXTT10=
EXTT11=
PLAYORDER=
